<?xml version="1.0" encoding="utf-8"?>
<!-- Generator: Adobe Illustrator 21.0.0, SVG Export Plug-In . SVG Version: 6.00 Build 0)  -->
<svg version="1.1" id="图层_1" xmlns="http://www.w3.org/2000/svg" xmlns:xlink="http://www.w3.org/1999/xlink" x="0px" y="0px"
	 viewBox="0 0 99 31" style="enable-background:new 0 0 99 31;" xml:space="preserve">
<style type="text/css">
	.st0{fill:none;stroke:#000000;stroke-width:3;}
</style>
<title>Group 2</title>
<desc>Created with Sketch.</desc>
<g id="Welcome">
	<g id="Desktop" transform="translate(-221.000000, -726.000000)">
		<g id="Group-2" transform="translate(220.000000, 726.000000)">
			<circle id="Oval" class="st0" cx="19" cy="18" r="5.5"/>
			<polygon id="Path-4" points="1,8 3,6 8,11 13.1,6 15,8 9.5,13.5 9.5,24 6.5,24 6.5,13.5 			"/>
			<path id="Rectangle" d="M16,26c5.3,1.3,8,2,8,2c0,0.8,0,1.5,0,3c0,0-2.7-0.7-8-2V26z"/>
			<rect id="Rectangle-4" x="34" y="6" width="3" height="18"/>
			<rect id="Rectangle-4-Copy" x="61" y="12" width="3" height="12"/>
			<rect id="Rectangle-4-Copy-2" x="68" y="14.5" width="3" height="9.5"/>
			<polygon id="Rectangle-4-Copy-5" points="68,14 76.5,14 85,14 85,17 76.5,17 68,17 			"/>
			<rect id="Rectangle-4-Copy-4" x="75" y="14.5" width="3" height="9.5"/>
			<rect id="Rectangle-4-Copy-3" x="82" y="14.5" width="3" height="9.5"/>
			<polygon id="Rectangle-5-Copy" points="36,17 43,10 45,12 37,19.9 			"/>
			<polygon id="Path-5" points="39.1,14.2 46.6,24.1 43,24.1 37,16.1 			"/>
			<g id="Group" transform="translate(46.000000, 13.000000)">
				<circle id="Oval-Copy" class="st0" cx="5.5" cy="5.5" r="4"/>
				<polygon id="Path-6" points="8.1,5.7 10.7,3.7 13,11 10,11 				"/>
			</g>
			<g id="Group-Copy" transform="translate(87.000000, 13.000000)">
				<circle id="Oval-Copy_1_" class="st0" cx="5.5" cy="5.5" r="4"/>
				<polygon id="Path-6_1_" points="8,5.5 10.7,3.7 13,11 10,11 				"/>
			</g>
			<polygon id="Path-8" points="64,14 66,16 64,18 62,16 			"/>
			<polygon id="Rectangle-5" points="12,2.7 15,0 18,2.7 18,4 15,2 12,4 			"/>
		</g>
	</g>
</g>
</svg>
