<?xml version="1.0" encoding="UTF-8"?>
<svg width="99px" height="31px" viewBox="0 0 99 31" version="1.1" xmlns="http://www.w3.org/2000/svg" xmlns:xlink="http://www.w3.org/1999/xlink">
    <!-- Generator: Sketch 44 (41411) - http://www.bohemiancoding.com/sketch -->
    <title>Group 2</title>
    <desc>Created with Sketch.</desc>
    <defs></defs>
    <g id="Welcome" stroke="none" stroke-width="1" fill="none" fill-rule="evenodd">
        <g id="Desktop" transform="translate(-221.000000, -726.000000)">
            <g id="Group-2" transform="translate(220.000000, 726.000000)">
                <circle id="Oval" stroke="#000000" stroke-width="3" cx="19" cy="18" r="5.5"></circle>
                <polygon id="Path-4" fill="#000000" points="0.999161487 8.01260515 3.01940678 6 8.04894864 10.9874756 13.0591968 6 15.0261848 8.01260515 9.50478962 13.5097586 9.50478962 23.9917673 6.51684791 23.9917673 6.51684791 13.5097586"></polygon>
                <path d="M16,26 C21.3300066,27.341378 23.9950099,28.0119959 23.9950099,28.0118536 C24.0062376,28.012067 23.9950099,29.3648833 23.9950099,31.0118536 C23.9950099,31.0118536 21.3300066,30.3412357 16,29 L16,26 Z" id="Rectangle" fill="#000000"></path>
                <rect id="Rectangle-4" fill="#000000" x="34" y="6" width="3" height="18"></rect>
                <rect id="Rectangle-4-Copy" fill="#000000" x="61" y="12" width="3" height="12"></rect>
                <rect id="Rectangle-4-Copy-2" fill="#000000" x="68" y="14" width="3" height="10"></rect>
                <polygon id="Rectangle-4-Copy-5" fill="#000000" points="68 14 76.5098695 14 85 14 85 17 76.5310196 17 68 17"></polygon>
                <rect id="Rectangle-4-Copy-4" fill="#000000" x="75" y="14" width="3" height="10"></rect>
                <rect id="Rectangle-4-Copy-3" fill="#000000" x="82" y="14" width="3" height="10"></rect>
                <polygon id="Rectangle-5-Copy" fill="#000000" points="36 17.0088489 42.9991131 10 45.027345 11.9540899 36.9896177 19.9438219"></polygon>
                <polygon id="Path-5" fill="#000000" points="38.9799667 14 46.6034646 24.0575461 42.9974928 24.0575461 37 16.0609504"></polygon>
                <g id="Group" transform="translate(46.000000, 13.000000)">
                    <circle id="Oval-Copy" stroke="#000000" stroke-width="3" cx="5.5" cy="5.5" r="4"></circle>
                    <polygon id="Path-6" fill="#000000" points="7.98396014 5.34715355 10.668228 3.60079111 13.0492033 10.9986944 10.0231008 10.9986944"></polygon>
                </g>
                <g id="Group-Copy" transform="translate(87.000000, 13.000000)">
                    <circle id="Oval-Copy" stroke="#000000" stroke-width="3" cx="5.5" cy="5.5" r="4"></circle>
                    <polygon id="Path-6" fill="#000000" points="7.98396014 5.34715355 10.668228 3.60079111 13.0492033 10.9986944 10.0231008 10.9986944"></polygon>
                </g>
                <polygon id="Path-8" fill="#000000" points="64.0050113 14 66.0227858 16.0155353 64.0035932 17.998379 62 16.0184462"></polygon>
                <polygon id="Rectangle-5" fill="#000000" points="12 2.66894698 15 0 18 2.66894698 18 4 15 2 12 4"></polygon>
            </g>
        </g>
    </g>
</svg>